<?xml version="1.0" encoding="UTF-8"?>
<!-- Generated by Pixelmator Pro 2.4.2 -->
<svg width="2000" height="2000" viewBox="0 0 2000 2000" xmlns="http://www.w3.org/2000/svg" xmlns:xlink="http://www.w3.org/1999/xlink">
    <g id="g1">
        <path id="Path" fill="#ffffff" stroke="none" d="M 1088.112671 220.703979 L 1027.791138 259.560547 L 1027.321167 385.217407 C 1027.164429 465.123901 1026.381104 510.717773 1025.440918 510.717773 C 1023.717529 510.717773 852.936951 390.231201 851.370178 388.03772 C 850.743408 387.254272 849.646606 386.78418 848.706604 387.097656 C 847.923218 387.411133 792.772034 426.11084 726.340027 473.114746 L 605.5401 558.505005 L 605.226746 738.686279 L 604.756714 918.867554 L 514.352722 919.337524 L 423.792023 919.651001 L 423.792023 925.918213 L 423.792023 932.185303 L 520.933228 932.185303 L 618.074463 932.185303 L 618.074463 749.810425 L 618.074463 567.278931 L 623.558289 563.048462 C 649.096985 543.620483 848.079834 404.332397 849.646606 404.959106 C 850.586731 405.272461 891.01001 433.631592 939.267273 467.630859 L 1027.00769 529.83252 L 1027.00769 731.008911 L 1027.00769 932.185303 L 1059.126953 932.185303 L 1091.246338 932.185303 L 1091.246338 745.266724 L 1091.246338 558.19165 L 1065.864258 540.329956 L 1040.325439 522.31189 L 1039.855469 397.438477 C 1039.698853 322.702515 1040.168823 272.565063 1040.952271 272.565063 C 1041.735596 272.565063 1064.61084 286.666138 1091.873047 304.057617 L 1141.383667 335.393433 L 1141.383667 438.80188 L 1141.383667 542.053589 L 1148.434326 542.053589 L 1155.484863 542.053589 L 1155.484863 438.80188 L 1155.484863 335.706909 L 1205.778931 303.744141 C 1233.51123 286.196045 1256.856567 271.468384 1257.639893 271.154907 C 1258.579956 270.841431 1258.736572 395.871704 1257.953247 601.434937 L 1256.856567 932.185303 L 1392.540894 932.185303 L 1528.381836 932.185303 L 1528.381836 925.918213 L 1528.381836 919.651001 L 1399.904663 919.651001 L 1271.427612 919.651001 L 1271.427612 589.997437 L 1271.427612 260.343994 L 1210.166016 221.017456 C 1176.636597 199.395874 1148.904419 181.69104 1148.747803 181.69104 C 1148.590942 181.69104 1121.328857 199.239014 1088.112671 220.703979 Z M 1199.355103 230.418213 C 1236.644897 254.390137 1246.045654 260.970703 1244.478882 262.537476 C 1241.815186 265.044312 1153.44812 320.822388 1150.314575 322.075684 C 1147.494263 323.172607 1051.763062 263.477539 1052.546509 261.127319 C 1053.486572 258.307129 1147.02417 198.925781 1149.531128 199.552246 C 1150.941162 199.865723 1173.346313 213.810303 1199.355103 230.418213 Z M 1061.477173 554.11792 L 1078.711914 566.182129 L 1078.398682 742.603271 L 1077.928589 918.867554 L 1059.126953 918.867554 L 1040.325439 918.867554 L 1039.855469 729.442139 C 1039.542114 563.518677 1039.855469 540.329956 1041.892334 540.956909 C 1043.145752 541.583496 1051.9198 547.380615 1061.477173 554.11792 Z"/>
        <path id="path1" fill="#ffffff" stroke="none" d="M 1141.383667 621.176758 L 1141.383667 657.996338 L 1148.434326 657.996338 L 1155.484863 657.996338 L 1155.484863 621.176758 L 1155.484863 584.357056 L 1148.434326 584.357056 L 1141.383667 584.357056 Z"/>
        <path id="path2" fill="#ffffff" stroke="none" d="M 795.122192 705.000244 L 795.122192 726.935303 L 817.057312 726.935303 L 838.992432 726.935303 L 838.992432 705.000244 L 838.992432 683.065063 L 817.057312 683.065063 L 795.122192 683.065063 Z"/>
        <path id="path3" fill="#ffffff" stroke="none" d="M 859.360779 705.000244 L 859.360779 726.935303 L 881.295898 726.935303 L 903.231018 726.935303 L 903.231018 705.000244 L 903.231018 683.065063 L 881.295898 683.065063 L 859.360779 683.065063 Z"/>
        <path id="path4" fill="#ffffff" stroke="none" d="M 1141.383667 770.805542 L 1141.383667 836.610962 L 1148.434326 836.610962 L 1155.484863 836.610962 L 1155.484863 770.805542 L 1155.484863 705.000244 L 1148.434326 705.000244 L 1141.383667 705.000244 Z"/>
        <path id="path5" fill="#ffffff" stroke="none" d="M 795.122192 766.105225 L 795.122192 788.040283 L 817.057312 788.040283 L 838.992432 788.040283 L 838.992432 766.105225 L 838.992432 744.170044 L 817.057312 744.170044 L 795.122192 744.170044 Z"/>
        <path id="path6" fill="#ffffff" stroke="none" d="M 859.360779 766.105225 L 859.360779 788.040283 L 881.295898 788.040283 L 903.231018 788.040283 L 903.231018 766.105225 L 903.231018 744.170044 L 881.295898 744.170044 L 859.360779 744.170044 Z"/>
        <path id="path7" fill="#ffffff" stroke="none" d="M 112 1143.702637 L 112 1265.912476 L 119.050575 1265.912476 L 126.101143 1265.912476 L 126.101143 1210.29126 L 126.101143 1154.670166 L 195.040085 1154.670166 L 263.979034 1154.670166 L 263.979034 1210.29126 L 263.979034 1265.912476 L 271.029602 1265.912476 L 278.08017 1265.912476 L 278.08017 1143.702637 L 278.08017 1021.492615 L 271.029602 1021.492615 L 263.979034 1021.492615 L 263.979034 1081.814209 L 263.979034 1142.135742 L 195.040085 1142.135742 L 126.101143 1142.135742 L 126.101143 1081.814209 L 126.101143 1021.492615 L 119.050575 1021.492615 L 112 1021.492615 Z"/>
        <path id="path8" fill="#ffffff" stroke="none" d="M 1130.416138 1144.485962 L 1130.416138 1267.479248 L 1137.466675 1267.479248 L 1144.517334 1267.479248 L 1144.517334 1225.802612 L 1144.517334 1184.125977 L 1159.088501 1167.987793 C 1166.922485 1159.057129 1173.816406 1151.849854 1174.286377 1151.693115 C 1174.75647 1151.693115 1195.908203 1177.388672 1221.290161 1208.724487 L 1267.51062 1265.912476 L 1275.814697 1265.912476 C 1280.20166 1265.912476 1283.961914 1265.442383 1283.961914 1264.972412 C 1283.961914 1264.502319 1261.713501 1235.830078 1234.294678 1201.360596 C 1199.041748 1156.707031 1185.09729 1138.062134 1186.19397 1136.495361 C 1186.977417 1135.398438 1210.009399 1109.076416 1237.428223 1078.053833 L 1287.095581 1021.492615 L 1277.85144 1021.492615 L 1268.450684 1021.492615 L 1206.875732 1091.52832 L 1145.300659 1161.720703 L 1144.830811 1091.52832 L 1144.517334 1021.492615 L 1137.466675 1021.492615 L 1130.416138 1021.492615 Z"/>
        <path id="path9" fill="#ffffff" stroke="none" d="M 398.723328 1090.431641 C 378.825012 1092.938477 361.747009 1102.025879 346.705719 1118.320557 C 314.743195 1152.946655 316.153259 1207.001099 350.15271 1240.84375 C 368.014191 1258.861938 389.165894 1266.852539 414.391266 1265.442383 C 448.390717 1263.562256 476.906372 1242.09729 489.597382 1208.724487 C 493.984375 1196.973633 495.707916 1171.278076 492.730957 1157.960327 C 485.993774 1126.624512 458.104858 1097.79541 429.119171 1092.155029 C 416.898193 1089.80481 407.967438 1089.334961 398.723328 1090.431641 Z M 425.202179 1104.689331 C 462.02182 1113.150146 487.560547 1151.223267 481.763397 1188.669434 C 475.339569 1229.562988 437.423157 1258.391846 398.723328 1251.811279 C 339.028503 1241.783813 315.213196 1167.674561 357.986664 1124.901001 C 376.004791 1106.882813 401.543518 1099.205566 425.202179 1104.689331 Z"/>
        <path id="path10" fill="#ffffff" stroke="none" d="M 970.603149 1090.431641 C 936.603699 1094.661865 906.677979 1121.924072 898.373962 1156.236816 C 897.277222 1160.937256 896.337158 1171.12146 896.337158 1178.955444 C 896.493835 1248.364502 974.05011 1289.727661 1029.514648 1249.774414 L 1038.758667 1243.19397 L 1028.574585 1242.723877 C 1020.427185 1242.410645 1016.510193 1243.037354 1009.459595 1246.170898 C 989.091309 1255.258301 968.8797 1254.631592 948.824768 1244.604126 C 936.447083 1238.493652 922.815918 1225.019287 916.862122 1213.268311 C 912.945129 1205.590942 907.931396 1190.393066 907.931396 1186.476074 C 907.931396 1184.752441 922.659302 1184.439209 987.211243 1184.439209 L 1066.491089 1184.439209 L 1065.394165 1173.941772 C 1059.753784 1120.670776 1018.703735 1084.634521 970.603149 1090.431641 Z M 992.538269 1102.96582 C 1018.547119 1107.822998 1038.758667 1127.407837 1048.942871 1157.177002 C 1054.583374 1173.47168 1061.947266 1171.904785 980.944031 1171.904785 C 941.77417 1171.904785 909.341553 1171.278076 908.871521 1170.494629 C 907.461365 1168.301147 912.318359 1151.379883 917.488892 1140.882324 C 930.806641 1113.463379 962.769165 1097.325439 992.538269 1102.96582 Z"/>
        <path id="path11" fill="#ffffff" stroke="none" d="M 1546.713379 1092.625122 C 1533.238892 1097.482178 1522.114624 1108.449707 1517.727783 1121.61084 C 1514.28064 1131.481445 1515.377563 1145.582642 1520.234619 1154.670166 C 1527.755127 1169.241455 1542.326294 1176.605225 1568.805176 1179.73877 C 1575.855713 1180.522217 1585.099854 1182.71582 1589.486816 1184.595825 C 1617.532471 1196.660278 1618.15918 1235.986816 1590.270142 1249.461182 C 1582.122925 1253.53479 1580.556152 1253.691406 1566.924927 1253.064941 C 1554.704102 1252.43811 1550.473633 1251.498047 1541.699585 1247.424316 C 1535.902466 1244.604126 1529.008545 1240.687134 1526.501709 1238.493652 L 1521.644775 1234.419922 L 1518.511108 1239.590332 L 1515.53418 1244.604126 L 1520.704468 1249.147949 C 1537.46936 1263.092163 1570.371948 1269.202637 1591.053589 1262.1521 C 1602.491211 1258.235107 1616.122314 1244.760742 1619.725952 1233.949829 C 1623.799683 1222.042236 1623.172852 1207.157715 1618.315796 1197.286865 C 1609.855103 1180.208984 1592.933838 1171.12146 1563.634644 1167.987793 C 1537.155884 1165.16748 1522.741455 1148.402954 1529.008545 1127.721313 C 1532.142212 1117.067139 1536.842529 1111.583252 1546.400024 1106.882813 C 1557.837646 1101.242432 1570.528687 1101.242432 1582.906372 1106.882813 C 1587.763428 1109.076416 1593.247192 1112.366699 1595.127197 1114.090088 L 1598.417603 1117.223633 L 1601.864502 1111.583252 C 1603.587891 1108.449707 1605.154785 1105.629395 1605.154785 1105.472656 C 1605.154785 1103.906006 1590.896973 1095.915283 1583.533081 1093.408447 C 1573.348999 1089.961426 1555.487427 1089.491455 1546.713379 1092.625122 Z"/>
        <path id="path12" fill="#ffffff" stroke="none" d="M 539.734802 1178.955444 L 539.734802 1265.912476 L 546.785339 1265.912476 L 553.835938 1265.912476 L 553.835938 1211.074707 L 553.835938 1156.080322 L 558.379639 1147.149414 C 574.204224 1115.970459 608.203674 1100.772339 640.166321 1110.799805 C 659.437866 1116.753784 674.949097 1130.85498 684.193237 1151.066406 L 688.5802 1160.937256 L 688.5802 1213.424805 L 688.5802 1265.912476 L 694.847412 1265.912476 L 701.114563 1265.912476 L 701.114563 1215.775146 C 701.114563 1168.458008 701.271301 1165.324463 704.404907 1156.707031 C 721.326233 1111.583252 768.80011 1094.191895 806.716553 1119.417236 C 818.467468 1127.094482 825.674683 1135.711914 832.568604 1149.969727 L 838.209045 1161.720703 L 838.679077 1213.738159 L 839.14917 1265.912476 L 845.416382 1265.912476 L 851.526794 1265.912476 L 851.526794 1217.655151 C 851.526794 1163.60083 850.900146 1158.900391 841.029236 1139.158813 C 834.135437 1125.371094 818.780884 1109.076416 806.716553 1102.652588 C 785.564819 1091.371582 759.399353 1090.588135 737.62085 1100.928955 C 725.399902 1106.56958 713.96228 1116.596924 704.404907 1130.071533 C 699.704529 1136.651978 695.317383 1141.665649 694.533997 1141.195801 C 693.907349 1140.725586 690.460388 1136.338623 687.170166 1131.324829 C 679.492859 1120.043945 665.54834 1107.196167 655.520874 1102.025879 C 624.968445 1086.671143 590.498962 1092.468506 564.176819 1117.380371 C 559.006348 1122.394165 554.462708 1126.467773 554.305969 1126.467773 C 553.992676 1126.467773 553.835938 1118.633789 553.835938 1109.233154 L 553.835938 1091.998291 L 546.785339 1091.998291 L 539.734802 1091.998291 Z"/>
        <path id="path13" fill="#ffffff" stroke="none" d="M 1376.402832 1093.721802 C 1356.974487 1095.915283 1339.426514 1105.159424 1325.168701 1120.670776 C 1295.086182 1153.72998 1295.712891 1207.314331 1326.735474 1239.590332 C 1351.804199 1265.442383 1388.780518 1272.806396 1420.89978 1258.235107 C 1426.226929 1255.88501 1436.254517 1249.147949 1443.305054 1243.507324 C 1450.355591 1237.710205 1456.622803 1233.009766 1457.092651 1233.009766 C 1457.562866 1233.009766 1457.876099 1240.373657 1457.876099 1249.461182 L 1457.876099 1265.912476 L 1464.926636 1265.912476 L 1471.977295 1265.912476 L 1471.977295 1178.955444 L 1471.977295 1091.998291 L 1464.926636 1091.998291 L 1458.032715 1091.998291 L 1457.562866 1109.076416 L 1457.092651 1126.154541 L 1444.714966 1116.126953 C 1437.821289 1110.486572 1429.046997 1104.219482 1425.130127 1102.182495 C 1410.402344 1094.818604 1393.010742 1091.841797 1376.402832 1093.721802 Z M 1402.881714 1109.389648 C 1421.369873 1113.620117 1439.701294 1127.87793 1448.162109 1144.642578 C 1454.585815 1157.333496 1456.779419 1169.084473 1455.995972 1184.752441 C 1454.89917 1207.001099 1442.991577 1227.682617 1424.816772 1239.276978 C 1395.987793 1257.921875 1354.467651 1251.968018 1333.629395 1226.429443 C 1309.970703 1197.130127 1311.537476 1154.356812 1337.389648 1127.87793 C 1344.910278 1120.200684 1359.638184 1111.73999 1369.822388 1109.389648 C 1377.812988 1107.509644 1394.577637 1107.353027 1402.881714 1109.389648 Z"/>
        <path id="path14" fill="#ffffff" stroke="none" d="M 1735.198608 1093.878418 C 1721.880859 1095.44519 1713.26355 1098.735596 1700.259277 1107.353027 C 1676.600464 1122.864136 1663.126099 1149.029663 1663.126099 1179.425537 C 1663.126099 1204.180786 1670.960083 1223.609131 1688.194824 1240.84375 C 1709.973267 1262.778809 1737.548828 1270.456299 1767.317871 1262.778809 C 1781.732544 1259.175171 1788.626343 1255.258301 1804.294189 1242.410645 C 1810.718262 1237.23999 1816.358643 1233.009766 1817.14209 1233.009766 C 1817.768799 1233.009766 1818.23877 1240.373657 1818.23877 1249.461182 L 1818.23877 1265.912476 L 1825.289307 1265.912476 L 1832.339844 1265.912476 L 1832.339844 1178.955444 L 1832.339844 1091.998291 L 1825.289307 1091.998291 L 1818.23877 1091.998291 L 1818.23877 1108.449707 C 1818.23877 1118.00708 1817.611938 1124.901001 1816.671997 1124.901001 C 1815.88855 1124.901001 1809.464722 1120.3573 1802.570801 1114.716797 C 1788.312988 1103.279175 1781.88916 1099.519043 1769.668091 1096.228638 C 1758.543945 1093.094971 1747.889648 1092.311646 1735.198608 1093.878418 Z M 1766.37793 1110.643311 C 1779.225586 1114.560303 1787.999756 1120.043945 1796.617065 1129.288086 C 1830.146362 1165.16748 1819.805542 1222.9823 1776.091919 1243.820801 C 1764.497803 1249.304443 1763.557617 1249.461182 1746.16626 1249.461182 C 1729.088135 1249.461182 1727.521362 1249.147949 1717.650635 1244.44751 C 1691.641846 1232.22644 1677.227295 1208.724487 1677.227295 1179.112061 C 1677.227295 1159.057129 1683.024536 1143.389282 1695.558838 1129.444824 C 1712.323486 1110.799805 1741.779297 1102.96582 1766.37793 1110.643311 Z"/>
        <path id="path15" fill="#ffffff" stroke="none" d="M 130.801529 1324.040527 C 124.534355 1326.547363 118.267174 1333.441284 116.543694 1339.865112 C 111.373291 1359.449951 130.17482 1376.37146 148.976349 1369.320923 C 155.24353 1366.814087 151.639923 1364.150391 145.059357 1366.343994 C 140.985687 1367.75415 138.792191 1367.597412 133.151718 1365.403931 C 124.534355 1362.270264 119.833969 1355.219727 119.833969 1345.81897 C 119.833969 1340.178589 120.774055 1338.29834 126.101143 1332.971436 C 132.054993 1326.86084 132.525009 1326.704102 141.612396 1327.330811 C 151.953247 1327.800781 155.400208 1326.390625 148.976349 1323.883789 C 143.649261 1322.003784 135.971985 1322.003784 130.801529 1324.040527 Z"/>
        <path id="path16" fill="#ffffff" stroke="none" d="M 174.671768 1346.602295 L 174.671768 1370.887695 L 187.206116 1370.887695 C 194.570068 1370.887695 199.740463 1370.260986 199.740463 1369.320923 C 199.740463 1368.380859 195.040085 1367.75415 188.772903 1367.75415 L 177.805344 1367.75415 L 177.805344 1345.035645 C 177.805344 1330.934448 177.17865 1322.317139 176.238556 1322.317139 C 175.298477 1322.317139 174.671768 1331.404541 174.671768 1346.602295 Z"/>
        <path id="path17" fill="#ffffff" stroke="none" d="M 224.965866 1325.137451 C 217.445267 1328.897461 213.52829 1334.85144 212.588196 1343.938965 C 210.238007 1369.007568 240.320419 1380.601807 254.264923 1359.920166 C 259.435364 1352.242798 258.651978 1337.044922 253.011459 1330.777832 C 244.707474 1322.1604 234.836639 1319.966797 224.965866 1325.137451 Z M 243.140686 1328.114136 C 258.808624 1335.478271 258.181854 1358.823486 242.200592 1365.247314 C 232.48645 1369.007568 222.772354 1365.090576 217.601913 1354.906494 C 212.744888 1345.505615 217.445267 1333.441284 227.942764 1328.270996 C 234.680008 1324.823975 236.246796 1324.823975 243.140686 1328.114136 Z"/>
        <path id="path18" fill="#ffffff" stroke="none" d="M 282.780548 1339.395142 C 282.780548 1348.795898 283.407318 1358.353271 284.347351 1360.546875 C 288.264343 1370.887695 304.245636 1373.708008 312.393005 1365.560547 C 316.309998 1361.643555 316.466614 1360.546875 316.936646 1341.901978 C 317.406769 1328.584229 316.936646 1322.317139 315.839966 1322.317139 C 314.743195 1322.317139 314.116425 1327.800781 314.116425 1337.828369 C 314.116425 1356.943115 312.236267 1362.740479 305.342438 1365.560547 C 299.545258 1367.910767 296.255035 1367.283936 291.084534 1362.583618 C 287.794312 1359.606934 287.480927 1358.040039 287.480927 1340.805298 C 287.480927 1325.450684 287.010925 1322.317139 285.130737 1322.317139 C 283.25058 1322.317139 282.780548 1325.293945 282.780548 1339.395142 Z"/>
        <path id="path19" fill="#ffffff" stroke="none" d="M 339.18515 1346.602295 L 339.18515 1370.887695 L 347.489136 1370.887695 C 363.313812 1370.887695 373.654602 1361.330322 373.654602 1346.602295 C 373.654602 1331.717773 363.470459 1322.317139 347.489136 1322.317139 L 339.18515 1322.317139 Z M 357.986664 1328.270996 C 364.723877 1331.561279 370.521027 1340.021973 370.521027 1346.602295 C 370.521027 1356.943115 358.77005 1367.75415 347.489136 1367.75415 L 342.318726 1367.75415 L 342.318726 1346.602295 L 342.318726 1325.450684 L 347.489136 1325.450684 C 350.15271 1325.450684 355.009827 1326.704102 357.986664 1328.270996 Z"/>
        <path id="path20" fill="#ffffff" stroke="none" d="M 442.593536 1346.602295 L 442.593536 1370.887695 L 454.501251 1370.887695 C 465.625427 1370.887695 466.565491 1370.574463 471.109222 1366.187256 C 475.026215 1362.11377 475.652954 1360.546875 474.869568 1356.316406 C 474.399445 1353.496338 472.519379 1350.049316 470.639191 1348.639282 C 467.662262 1346.132324 467.662262 1345.662354 469.855804 1342.37207 C 473.616058 1337.044922 472.832642 1332.031128 467.819 1326.86084 C 463.588623 1322.787109 462.178467 1322.317139 452.934448 1322.317139 L 442.593536 1322.317139 Z M 465.625427 1329.054443 C 467.035583 1330.307617 468.132263 1333.441284 468.132263 1335.791504 C 468.132263 1341.901978 462.648499 1345.81897 454.187866 1345.81897 L 447.293915 1345.81897 L 447.293915 1335.478271 L 447.293915 1324.980469 L 455.284637 1325.763916 C 459.671631 1326.234131 464.215302 1327.644287 465.625427 1329.054443 Z M 468.289001 1351.459473 C 469.699066 1352.712891 470.795837 1355.846436 470.795837 1358.353271 C 470.795837 1364.620605 465.782074 1367.75415 455.597931 1367.75415 L 447.293915 1367.75415 L 447.293915 1358.353271 L 447.293915 1348.952637 L 456.538055 1348.952637 C 462.961884 1348.952637 466.722229 1349.735962 468.289001 1351.459473 Z"/>
        <path id="path21" fill="#ffffff" stroke="none" d="M 510.905823 1327.174072 C 509.652313 1330.151123 505.422058 1340.178589 501.348328 1349.735962 C 497.274689 1359.136719 493.671082 1367.910767 493.200989 1368.85083 C 492.730957 1369.947632 493.514343 1370.887695 494.767761 1370.887695 C 496.177917 1370.887695 498.058105 1368.380859 499.154877 1365.403931 L 501.191681 1359.920166 L 513.256042 1359.920166 L 525.47699 1359.920166 L 527.357178 1365.403931 C 529.080627 1370.104248 533.46759 1373.237793 533.46759 1369.634155 C 533.46759 1368.380859 514.666077 1323.570557 513.726013 1322.473633 C 513.412659 1322.1604 512.159241 1324.197144 510.905823 1327.174072 Z M 521.873413 1353.182861 C 522.813416 1356.629883 522.500061 1356.786621 513.256042 1356.786621 C 507.928894 1356.786621 503.698517 1356.15979 503.698517 1355.376465 C 503.698517 1354.593018 505.892059 1349.109131 508.555634 1343.155518 L 513.412659 1332.501221 L 517.172974 1340.961914 C 519.366455 1345.662354 521.403259 1351.146118 521.873413 1353.182861 Z"/>
        <path id="path22" fill="#ffffff" stroke="none" d="M 557.596252 1325.920776 C 552.58252 1330.307617 551.799133 1337.828369 556.02948 1342.528809 C 557.596252 1344.252197 561.983276 1346.132324 565.900269 1346.759033 C 573.890869 1348.012451 578.904602 1351.929443 578.904602 1357.099854 C 578.747986 1366.814087 566.213623 1370.731079 558.066284 1363.523926 C 555.089355 1360.703613 552.895874 1361.643555 554.305969 1365.247314 C 555.559448 1368.380859 566.683655 1371.514404 571.697388 1370.260986 C 578.277954 1368.537476 582.038208 1363.837158 582.038208 1356.943115 C 582.038208 1349.579346 577.494568 1345.192139 568.407104 1343.46875 C 559.319702 1341.745361 556.969543 1340.021973 556.969543 1334.85144 C 556.969543 1327.95752 563.236694 1324.197144 570.600647 1326.86084 C 576.867798 1329.210938 579.531372 1327.800781 575.144409 1324.51062 C 570.444031 1321.063477 562.453308 1321.846924 557.596252 1325.920776 Z"/>
        <path id="path23" fill="#ffffff" stroke="none" d="M 603.973328 1346.602295 L 603.973328 1370.887695 L 617.291077 1370.887695 C 633.585754 1370.887695 635.152588 1368.067383 619.327881 1367.440796 L 607.89032 1366.970703 L 607.420288 1357.883301 L 606.950256 1348.952637 L 616.50769 1348.952637 C 621.678101 1348.952637 625.908447 1348.325806 625.908447 1347.385742 C 625.908447 1346.445801 621.678101 1345.81897 616.50769 1345.81897 L 606.950256 1345.81897 L 607.420288 1335.94812 L 607.89032 1326.234131 L 620.111267 1325.763916 C 637.032776 1325.137451 635.309204 1322.317139 618.074463 1322.317139 L 603.973328 1322.317139 Z"/>
        <path id="path24" fill="#ffffff" stroke="none" d="M 652.543945 1346.602295 L 652.543945 1370.887695 L 661.318054 1370.887695 C 678.239441 1370.887695 688.5802 1361.643555 688.5802 1346.445801 C 688.5802 1331.561279 678.239441 1322.317139 661.631348 1322.317139 L 652.543945 1322.317139 Z M 671.972229 1327.644287 C 682.939819 1332.187988 687.953552 1344.408813 682.939819 1354.593018 C 679.022827 1362.427002 673.225647 1366.343994 664.45166 1367.283936 L 657.244324 1368.224243 L 657.244324 1346.759033 L 657.244324 1325.450684 L 661.944702 1325.450684 C 664.608276 1325.450684 668.9953 1326.390625 671.972229 1327.644287 Z"/>
        <path id="path25" fill="#ffffff" stroke="none" d="M 751.251953 1346.602295 C 751.251953 1360.860107 751.878723 1370.887695 752.662109 1370.887695 C 753.602173 1370.887695 754.385559 1367.597412 754.698975 1363.366943 L 755.168945 1356.003174 L 764.413086 1355.219727 C 776.007324 1354.123047 781.021057 1349.265869 781.021057 1339.081665 C 780.864441 1327.95752 773.97052 1322.317139 760.339355 1322.317139 L 751.251953 1322.317139 Z M 772.403687 1329.210938 C 777.260803 1332.344604 778.827637 1338.29834 776.320679 1344.095459 C 774.127258 1349.422607 768.956726 1352.086182 760.652771 1352.086182 L 754.385559 1352.086182 L 754.385559 1339.865112 C 754.385559 1333.12793 754.855591 1327.017456 755.638977 1326.390625 C 757.362488 1324.51062 768.016724 1326.390625 772.403687 1329.210938 Z"/>
        <path id="path26" fill="#ffffff" stroke="none" d="M 806.089783 1346.602295 C 806.089783 1361.800293 806.716553 1370.887695 807.656555 1370.887695 C 808.59668 1370.887695 809.223389 1366.970703 809.223389 1362.270264 L 809.223389 1353.652954 L 816.430664 1353.652954 L 823.481262 1353.652954 L 827.241516 1362.270264 C 829.435059 1366.970703 831.785217 1370.887695 832.725281 1370.887695 C 835.232178 1370.887695 834.605469 1368.224243 830.375061 1359.920166 L 826.458069 1352.242798 L 830.375061 1348.325806 C 836.172241 1342.528809 835.858887 1332.971436 829.748413 1326.86084 C 825.674683 1322.787109 824.10791 1322.317139 815.647278 1322.317139 L 806.089783 1322.317139 Z M 827.241516 1329.367676 C 836.328857 1338.29834 827.241516 1352.242798 813.610352 1350.206055 C 810.320129 1349.735962 810.006775 1348.795898 809.536743 1339.708496 C 808.909973 1326.390625 809.380066 1325.450684 817.057312 1325.450684 C 821.75769 1325.450684 824.421265 1326.547363 827.241516 1329.367676 Z"/>
        <path id="path27" fill="#ffffff" stroke="none" d="M 871.895142 1325.293945 C 864.217896 1329.367676 858.890747 1339.865112 859.830811 1348.795898 C 860.614197 1356.473267 864.374512 1362.270264 871.895142 1367.283936 C 885.056213 1376.37146 904.014404 1366.03064 905.894592 1348.795898 C 907.304749 1335.164795 896.18042 1322.317139 882.862671 1322.317139 C 879.885803 1322.317139 874.87207 1323.570557 871.895142 1325.293945 Z M 893.830261 1329.837769 C 899.784058 1334.224609 903.544373 1342.998657 902.290955 1349.735962 C 899.00061 1367.127319 878.162292 1372.767822 867.821472 1358.980103 C 854.033752 1340.961914 875.655457 1316.833252 893.830261 1329.837769 Z"/>
        <path id="path28" fill="#ffffff" stroke="none" d="M 931.433289 1346.445801 C 931.433289 1361.643555 932.060059 1370.887695 933.000061 1370.887695 C 933.940247 1370.887695 934.566895 1367.283936 934.566895 1363.053711 L 934.566895 1355.219727 L 942.400879 1355.219727 C 946.94458 1355.219727 951.958374 1354.123047 953.995178 1352.869629 C 962.299133 1347.385742 963.082581 1333.911377 955.718628 1327.017456 C 952.585022 1324.040527 949.451416 1323.100464 941.617432 1322.630371 L 931.433289 1322.003784 Z M 947.571228 1326.86084 C 953.525146 1329.210938 956.502014 1333.12793 956.502014 1338.925049 C 956.502014 1347.07251 950.861572 1352.086182 941.617432 1352.086182 L 934.566895 1352.086182 L 934.566895 1338.768433 L 934.566895 1325.450684 L 939.110596 1325.450684 C 941.617432 1325.450684 945.534424 1326.077393 947.571228 1326.86084 Z"/>
        <path id="path29" fill="#ffffff" stroke="none" d="M 981.570679 1346.602295 L 981.570679 1370.887695 L 995.671875 1370.887695 C 1003.97583 1370.887695 1009.77301 1370.260986 1009.77301 1369.320923 C 1009.77301 1368.380859 1004.759216 1367.75415 998.022034 1367.75415 L 986.271118 1367.75415 L 986.271118 1358.353271 L 986.271118 1348.952637 L 995.671875 1348.952637 C 1000.842224 1348.952637 1005.072632 1348.325806 1005.072632 1347.385742 C 1005.072632 1346.445801 1000.842224 1345.81897 995.671875 1345.81897 L 986.271118 1345.81897 L 986.271118 1335.634766 L 986.271118 1325.450684 L 998.022034 1325.450684 C 1004.759216 1325.450684 1009.77301 1324.823975 1009.77301 1323.883789 C 1009.77301 1322.943848 1003.97583 1322.317139 995.671875 1322.317139 L 981.570679 1322.317139 Z"/>
        <path id="path30" fill="#ffffff" stroke="none" d="M 1031.70813 1346.602295 C 1031.70813 1361.800293 1032.334839 1370.887695 1033.274902 1370.887695 C 1034.215088 1370.887695 1034.841675 1366.970703 1034.841675 1362.270264 L 1034.841675 1353.652954 L 1041.735596 1353.652954 C 1048.472778 1353.652954 1048.629517 1353.652954 1052.233154 1362.270264 C 1054.27002 1366.970703 1056.933594 1370.887695 1058.030273 1370.887695 C 1060.537109 1370.887695 1060.537109 1371.044312 1055.836792 1360.860107 L 1051.763062 1352.086182 L 1055.836792 1347.229126 C 1060.223877 1342.058594 1060.850464 1337.20166 1058.030273 1330.934448 C 1055.523438 1325.293945 1049.099609 1322.317139 1039.542114 1322.317139 L 1031.70813 1322.317139 Z M 1052.389771 1330.151123 C 1056.150146 1334.068115 1056.933594 1335.791504 1055.993408 1339.238525 C 1054.426636 1346.132324 1049.882935 1349.422607 1042.362305 1349.579346 L 1035.625122 1349.735962 L 1035.155029 1337.514893 L 1034.685059 1325.450684 L 1041.108887 1325.450684 C 1046.279297 1325.450684 1048.629517 1326.390625 1052.389771 1330.151123 Z"/>
        <path id="path31" fill="#ffffff" stroke="none" d="M 1084.979126 1323.883789 C 1084.979126 1324.667236 1088.896118 1325.450684 1093.596436 1325.450684 L 1102.213867 1325.450684 L 1102.213867 1348.169189 C 1102.213867 1367.283936 1102.527344 1370.887695 1104.564087 1370.887695 C 1106.600952 1370.887695 1106.914185 1367.283936 1106.914185 1348.169189 L 1106.914185 1325.450684 L 1115.531616 1325.450684 C 1120.231934 1325.450684 1124.148926 1324.667236 1124.148926 1323.883789 C 1124.148926 1322.943848 1116.628418 1322.317139 1104.564087 1322.317139 C 1092.499756 1322.317139 1084.979126 1322.943848 1084.979126 1323.883789 Z"/>
        <path id="path32" fill="#ffffff" stroke="none" d="M 1155.484863 1335.634766 C 1162.848877 1348.325806 1163.318848 1349.892578 1163.318848 1360.076782 C 1163.318848 1368.694092 1163.78894 1370.887695 1165.669067 1370.887695 C 1167.549316 1370.887695 1168.019165 1368.537476 1168.019165 1359.606934 C 1168.019165 1349.265869 1168.489258 1347.698975 1175.069824 1336.261597 C 1182.903687 1322.787109 1183.060425 1322.317139 1180.083618 1322.317139 C 1178.986816 1322.317139 1175.383301 1327.330811 1172.092773 1333.441284 C 1168.802612 1339.395142 1165.669067 1343.938965 1165.199097 1343.46875 C 1164.572388 1342.998657 1161.595337 1338.141602 1158.618408 1332.814453 C 1155.484863 1327.487549 1151.724487 1322.943848 1150.314575 1322.630371 C 1148.434326 1322.1604 1149.687744 1325.6073 1155.484863 1335.634766 Z"/>
        <path id="path33" fill="#ffffff" stroke="none" d="M 1253.566162 1324.197144 C 1251.529419 1330.307617 1244.792114 1369.947632 1245.575562 1370.731079 C 1247.29895 1372.454468 1248.865723 1367.597412 1252.469482 1348.952637 C 1254.506348 1338.611816 1256.543091 1330.151123 1257.1698 1330.151123 C 1257.639893 1330.151123 1261.556885 1338.29834 1265.787231 1348.169189 C 1270.017456 1358.040039 1273.934448 1366.187256 1274.404541 1366.187256 C 1274.874634 1366.187256 1278.791626 1358.040039 1283.021973 1348.169189 C 1287.252197 1338.29834 1291.169189 1330.151123 1291.639282 1330.151123 C 1292.109375 1330.151123 1294.302734 1339.238525 1296.339722 1350.519287 C 1299.160034 1365.090576 1300.726807 1370.887695 1302.293579 1370.887695 C 1303.703491 1370.887695 1304.173584 1369.791016 1303.703491 1368.067383 C 1303.233643 1366.657471 1301.040039 1355.846436 1298.846558 1344.252197 C 1296.652954 1332.657959 1294.459595 1322.943848 1294.146118 1322.630371 C 1291.952515 1320.437012 1288.505737 1325.450684 1282.395142 1339.395142 C 1278.634766 1348.169189 1275.03125 1355.689941 1274.561157 1356.003174 C 1273.934448 1356.473267 1270.174316 1349.109131 1266.257324 1339.865112 C 1259.676636 1324.197144 1255.289795 1318.713379 1253.566162 1324.197144 Z"/>
        <path id="path34" fill="#ffffff" stroke="none" d="M 1343.656738 1325.6073 C 1342.873413 1327.644287 1338.956421 1337.044922 1334.882813 1346.602295 C 1324.071899 1371.984375 1324.385376 1370.887695 1327.048828 1370.887695 C 1328.302368 1370.887695 1330.338989 1368.380859 1331.592529 1365.403931 L 1333.942749 1359.920166 L 1345.536987 1359.920166 L 1356.974487 1359.920166 L 1359.638184 1365.403931 C 1361.04834 1368.380859 1363.241699 1370.887695 1364.495239 1370.887695 C 1366.062012 1370.887695 1363.868408 1364.150391 1356.661255 1347.07251 C 1351.020874 1333.911377 1346.163818 1322.943848 1345.850342 1322.630371 C 1345.536987 1322.1604 1344.440186 1323.570557 1343.656738 1325.6073 Z M 1354.311035 1353.966309 C 1354.467651 1356.316406 1353.057495 1356.786621 1344.910278 1356.786621 C 1334.099365 1356.786621 1334.255981 1357.569946 1341.463379 1341.431885 L 1345.536987 1332.501221 L 1349.92395 1341.901978 C 1352.27417 1347.07251 1354.311035 1352.556274 1354.311035 1353.966309 Z"/>
        <path id="path35" fill="#ffffff" stroke="none" d="M 1387.370361 1346.602295 C 1387.370361 1368.067383 1387.683838 1370.887695 1390.034058 1370.887695 C 1392.227417 1370.887695 1392.384277 1368.85083 1391.60083 1350.519287 C 1391.130737 1339.238525 1391.287354 1330.151123 1391.757446 1330.151123 C 1392.384277 1330.151123 1397.868042 1339.238525 1403.978394 1350.206055 C 1419.333008 1377.625 1420.273071 1377.46814 1420.273071 1346.759033 C 1420.273071 1331.561279 1419.64624 1322.317139 1418.706299 1322.317139 C 1417.766235 1322.317139 1417.139404 1330.307617 1417.139404 1342.998657 C 1416.982788 1367.127319 1417.922852 1367.283936 1403.194946 1340.491821 C 1395.987793 1327.644287 1392.227417 1322.317139 1390.190674 1322.317139 C 1387.526978 1322.317139 1387.370361 1324.197144 1387.370361 1346.602295 Z"/>
        <path id="path36" fill="#ffffff" stroke="none" d="M 1452.862427 1343.938965 C 1440.954834 1372.454468 1441.424805 1370.887695 1444.245117 1370.887695 C 1445.655273 1370.887695 1447.378662 1368.537476 1448.475342 1365.403931 L 1450.355591 1359.920166 L 1462.4198 1359.920166 L 1474.484131 1359.920166 L 1476.520996 1365.403931 C 1477.617676 1368.380859 1479.497925 1370.887695 1480.751221 1370.887695 C 1482.004761 1370.887695 1482.944824 1370.574463 1482.944824 1370.260986 C 1482.944824 1368.85083 1463.986694 1324.667236 1462.890015 1323.570557 C 1462.263184 1322.943848 1457.719482 1332.187988 1452.862427 1343.938965 Z M 1467.746948 1343.938965 C 1470.097168 1349.892578 1471.977295 1355.06311 1471.977295 1355.689941 C 1471.977295 1356.316406 1467.746948 1356.786621 1462.576538 1356.786621 C 1457.406128 1356.786621 1453.175659 1356.15979 1453.175659 1355.219727 C 1453.175659 1352.869629 1461.479858 1333.284668 1462.4198 1333.284668 C 1462.890015 1333.284668 1465.240112 1338.141602 1467.746948 1343.938965 Z"/>
        <path id="path37" fill="#ffffff" stroke="none" d="M 1511.147095 1325.137451 C 1496.105957 1332.657959 1493.912354 1355.532959 1507.386719 1366.03064 C 1520.547852 1376.37146 1540.759521 1368.224243 1543.579834 1351.459473 L 1544.519897 1345.81897 L 1535.588989 1345.81897 C 1530.732056 1345.81897 1526.815063 1346.445801 1526.815063 1347.385742 C 1526.815063 1348.169189 1529.635376 1348.952637 1533.082275 1348.952637 C 1538.252686 1348.952637 1539.349365 1349.422607 1539.349365 1351.929443 C 1539.349365 1356.629883 1531.828857 1364.307251 1525.561768 1366.03064 C 1521.017944 1367.440796 1518.824463 1367.127319 1514.28064 1364.933838 C 1507.543579 1361.643555 1501.746338 1353.182861 1501.746338 1346.602295 C 1501.746338 1339.865112 1507.543579 1331.561279 1514.594116 1328.114136 C 1519.607788 1325.6073 1520.861328 1325.6073 1526.501709 1327.487549 C 1531.672119 1329.367676 1533.082275 1329.367676 1533.708984 1327.644287 C 1534.49231 1325.450684 1527.12854 1322.317139 1520.704468 1322.317139 C 1518.511108 1322.317139 1514.124023 1323.570557 1511.147095 1325.137451 Z"/>
        <path id="path38" fill="#ffffff" stroke="none" d="M 1565.984863 1346.602295 L 1565.984863 1370.887695 L 1579.302612 1370.887695 C 1595.59729 1370.887695 1597.164185 1368.067383 1581.3396 1367.440796 L 1569.901855 1366.970703 L 1569.432007 1357.883301 L 1568.961792 1348.952637 L 1578.519287 1348.952637 C 1583.689697 1348.952637 1587.920044 1348.325806 1587.920044 1347.385742 C 1587.920044 1346.445801 1583.689697 1345.81897 1578.519287 1345.81897 L 1568.961792 1345.81897 L 1569.432007 1335.94812 L 1569.901855 1326.234131 L 1582.122925 1325.763916 C 1599.044189 1325.137451 1597.320801 1322.317139 1580.08606 1322.317139 L 1565.984863 1322.317139 Z"/>
        <path id="path39" fill="#ffffff" stroke="none" d="M 1623.172852 1324.197144 C 1621.292847 1329.837769 1614.555542 1369.791016 1615.338867 1370.574463 C 1617.219116 1372.454468 1618.62915 1367.75415 1622.232788 1348.795898 C 1624.269775 1338.455078 1626.463135 1330.464355 1627.24646 1331.247803 C 1627.873291 1331.874512 1631.946899 1340.491821 1636.177368 1350.206055 L 1643.854614 1367.910767 L 1652.158569 1348.952637 C 1656.702271 1338.611816 1661.089355 1330.621094 1661.715942 1331.247803 C 1662.186035 1331.874512 1664.379639 1341.118652 1666.259766 1351.615967 C 1668.766602 1364.7771 1670.490112 1370.887695 1671.900146 1370.887695 C 1672.996948 1370.887695 1673.623779 1369.947632 1673.310303 1368.85083 C 1672.996948 1367.910767 1670.803467 1356.943115 1668.453247 1344.56543 C 1663.282715 1316.363159 1661.872803 1315.893311 1652.315186 1338.768433 C 1648.555054 1347.855957 1644.951294 1355.689941 1644.324585 1356.003174 C 1643.697876 1356.316406 1639.937744 1348.952637 1635.707275 1339.551758 C 1628.813354 1323.570557 1625.053101 1319.026855 1623.172852 1324.197144 Z"/>
        <path id="path40" fill="#ffffff" stroke="none" d="M 1694.462036 1346.602295 L 1694.462036 1370.887695 L 1708.56311 1370.887695 C 1725.797852 1370.887695 1727.521362 1368.067383 1710.600098 1367.440796 L 1698.379028 1366.970703 L 1698.379028 1358.353271 L 1698.379028 1349.735962 L 1707.466431 1349.265869 C 1712.323486 1348.952637 1716.397095 1348.169189 1716.397095 1347.385742 C 1716.397095 1346.602295 1712.323486 1345.81897 1707.466431 1345.505615 L 1698.379028 1345.035645 L 1698.379028 1335.634766 L 1698.379028 1326.234131 L 1710.600098 1325.763916 C 1727.521362 1325.137451 1725.797852 1322.317139 1708.56311 1322.317139 L 1694.462036 1322.317139 Z"/>
        <path id="path41" fill="#ffffff" stroke="none" d="M 1744.599365 1346.445801 C 1744.599365 1376.684814 1747.419678 1379.818359 1748.046509 1350.362793 L 1748.516357 1329.837769 L 1760.267334 1350.362793 C 1776.405396 1378.72168 1777.502075 1378.564941 1777.502075 1346.602295 C 1777.502075 1326.234131 1777.188843 1322.317139 1775.151855 1322.317139 C 1773.271851 1322.317139 1772.801758 1326.077393 1772.488403 1342.842041 L 1772.018311 1363.366943 L 1760.894165 1343.312134 C 1754.626953 1332.187988 1748.516357 1322.943848 1747.106201 1322.630371 C 1744.912842 1322.1604 1744.599365 1324.980469 1744.599365 1346.445801 Z"/>
        <path id="path42" fill="#ffffff" stroke="none" d="M 1802.570801 1323.727295 C 1802.570801 1324.667236 1806.331177 1325.450684 1810.874878 1325.763916 L 1819.022095 1326.234131 L 1819.492188 1348.482422 C 1819.648926 1361.173584 1820.588867 1370.887695 1821.372314 1370.887695 C 1822.155762 1370.887695 1823.095703 1361.173584 1823.252563 1348.482422 L 1823.722534 1326.234131 L 1832.026611 1325.763916 C 1836.413452 1325.450684 1840.173828 1324.667236 1840.173828 1323.727295 C 1840.173828 1322.943848 1832.183228 1322.317139 1821.372314 1322.317139 C 1810.561401 1322.317139 1802.570801 1322.943848 1802.570801 1323.727295 Z"/>
        <path id="path43" fill="#ffffff" stroke="none" d="M 398.723328 1350.519287 C 398.723328 1351.459473 402.953674 1352.086182 408.124084 1352.086182 C 413.294495 1352.086182 417.524841 1351.459473 417.524841 1350.519287 C 417.524841 1349.579346 413.294495 1348.952637 408.124084 1348.952637 C 402.953674 1348.952637 398.723328 1349.579346 398.723328 1350.519287 Z"/>
    </g>
</svg>
